<svg width="278" height="113" viewBox="0 0 278 113" fill="none" xmlns="http://www.w3.org/2000/svg">
<path d="M65.9749 10.8338C81.8632 14.0339 103.627 19.7463 121.212 18.4129C136.934 17.2207 159.857 12.8549 165.484 10.8338C172.518 8.30746 175.828 6.20218 185.965 1.36C196.102 -3.48219 210.376 5.57067 215.135 13.3602C221.475 23.7399 242.236 19.6761 254.028 23.6761C265.82 27.6762 271.406 39.0448 276.164 47.0449C280.922 55.0451 276.164 84.7298 264.992 98.4142C253.821 112.099 220.1 100.941 205.825 100.941C191.55 100.941 185.137 104.941 179.758 108.099C174.379 111.256 134.659 112.099 118.936 100.941C103.213 89.7825 95.9724 94.4141 81.6977 94.4141C67.423 94.4141 43.8388 115.467 18.3927 112.099C-7.05338 108.73 5.7731 74.4138 0.394243 50.2029C-4.98461 25.992 46.1145 6.83376 65.9749 10.8338Z" fill="white"/>
</svg>
